<?xml version="1.0" standalone="no"?>
<!DOCTYPE svg PUBLIC "-//W3C//DTD SVG 20010904//EN"
 "http://www.w3.org/TR/2001/REC-SVG-20010904/DTD/svg10.dtd">
<svg version="1.0" xmlns="http://www.w3.org/2000/svg"
 width="260.000000pt" height="260.000000pt" viewBox="0 0 260.000000 260.000000"
 preserveAspectRatio="xMidYMid meet">
<metadata>
Created by potrace 1.11, written by Peter Selinger 2001-2013
</metadata>
<g transform="translate(0.000000,260.000000) scale(0.100000,-0.100000)"
fill="#000000" stroke="none">
<path d="M0 1300 l0 -1300 1300 0 1300 0 0 1300 0 1300 -1300 0 -1300 0 0
-1300z m2380 0 l0 -1070 -1070 0 -1070 0 0 1070 0 1070 1070 0 1070 0 0 -1070z"/>
<path d="M250 1300 l0 -1060 1060 0 1060 0 0 1060 0 1060 -1060 0 -1060 0 0
-1060z m1321 761 c17 -21 18 -26 6 -45 -14 -20 -24 -21 -248 -26 l-234 -5 -3
-549 c-1 -385 -5 -553 -13 -563 -6 -7 -26 -13 -45 -13 -66 0 -64 -17 -64 587
l0 543 -229 0 c-195 0 -232 2 -245 16 -26 25 -19 50 19 72 14 9 160 11 528 9
l509 -2 19 -24z m130 -273 c128 -48 252 -158 327 -289 120 -211 116 -514 -10
-727 -46 -79 -170 -200 -244 -239 -99 -53 -157 -63 -354 -63 -124 0 -180 4
-188 12 -18 18 -17 1309 1 1327 9 10 57 12 207 9 178 -4 201 -7 261 -30z"/>
<path d="M1310 1146 l0 -566 139 0 c211 0 297 34 417 163 167 180 200 465 81
692 -49 92 -148 187 -243 232 l-79 38 -157 4 -158 3 0 -566z"/>
</g>
</svg>
